<?xml version="1.0" encoding="UTF-8" standalone="no"?>
<svg width="800" height="600" xmlns="http://www.w3.org/2000/svg">
  <!-- Background -->
  <rect width="800" height="600" fill="#f9f9f9"/>
  
  <!-- Title -->
  <text x="400" y="30" font-family="Arial" font-size="24" text-anchor="middle" font-weight="bold">RFID Door Lock System - Circuit Diagram</text>
  
  <!-- Arduino UNO -->
  <rect x="300" y="150" width="200" height="300" fill="#00979d" stroke="#007076" stroke-width="2" rx="10" ry="10"/>
  <text x="400" y="180" font-family="Arial" font-size="18" text-anchor="middle" fill="white" font-weight="bold">Arduino UNO</text>
  
  <!-- Arduino Pins -->
  <!-- Digital Pins -->
  <text x="320" y="210" font-family="Arial" font-size="12" fill="white">D0/RX</text>
  <text x="320" y="230" font-family="Arial" font-size="12" fill="white">D1/TX</text>
  <text x="320" y="250" font-family="Arial" font-size="12" fill="white">D2</text>
  <text x="320" y="270" font-family="Arial" font-size="12" fill="white">D3~</text>
  <text x="320" y="290" font-family="Arial" font-size="12" fill="white">D4</text>
  <text x="320" y="310" font-family="Arial" font-size="12" fill="white">D5~</text>
  <text x="320" y="330" font-family="Arial" font-size="12" fill="white">D6~</text>
  <text x="320" y="350" font-family="Arial" font-size="12" fill="white">D7</text>
  <text x="320" y="370" font-family="Arial" font-size="12" fill="white">D8</text>
  <text x="320" y="390" font-family="Arial" font-size="12" fill="white">D9~</text>
  <text x="320" y="410" font-family="Arial" font-size="12" fill="white">D10~</text>
  <text x="320" y="430" font-family="Arial" font-size="12" fill="white">D11~</text>
  
  <!-- Analog Pins and Power -->
  <text x="460" y="210" font-family="Arial" font-size="12" fill="white">A0</text>
  <text x="460" y="230" font-family="Arial" font-size="12" fill="white">A1</text>
  <text x="460" y="250" font-family="Arial" font-size="12" fill="white">A2</text>
  <text x="460" y="270" font-family="Arial" font-size="12" fill="white">A3</text>
  <text x="460" y="290" font-family="Arial" font-size="12" fill="white">A4/SDA</text>
  <text x="460" y="310" font-family="Arial" font-size="12" fill="white">A5/SCL</text>
  <text x="460" y="350" font-family="Arial" font-size="12" fill="white">5V</text>
  <text x="460" y="370" font-family="Arial" font-size="12" fill="white">3.3V</text>
  <text x="460" y="390" font-family="Arial" font-size="12" fill="white">GND</text>
  <text x="460" y="410" font-family="Arial" font-size="12" fill="white">GND</text>
  <text x="460" y="430" font-family="Arial" font-size="12" fill="white">Vin</text>
  
  <!-- RFID RC522 Module -->
  <rect x="100" y="150" width="120" height="160" fill="#4CAF50" stroke="#388E3C" stroke-width="2" rx="5" ry="5"/>
  <text x="160" y="180" font-family="Arial" font-size="14" text-anchor="middle" fill="white" font-weight="bold">RFID RC522</text>
  <text x="120" y="210" font-family="Arial" font-size="12" fill="white">SDA</text>
  <text x="120" y="230" font-family="Arial" font-size="12" fill="white">SCK</text>
  <text x="120" y="250" font-family="Arial" font-size="12" fill="white">MOSI</text>
  <text x="120" y="270" font-family="Arial" font-size="12" fill="white">MISO</text>
  <text x="120" y="290" font-family="Arial" font-size="12" fill="white">IRQ</text>
  <text x="120" y="310" font-family="Arial" font-size="12" fill="white">GND</text>
  <text x="120" y="330" font-family="Arial" font-size="12" fill="white">RST</text>
  <text x="120" y="350" font-family="Arial" font-size="12" fill="white">3.3V</text>
  
  <!-- LCD Display -->
  <rect x="580" y="150" width="160" height="100" fill="#2196F3" stroke="#1976D2" stroke-width="2" rx="5" ry="5"/>
  <rect x="590" y="170" width="140" height="60" fill="#BBDEFB" stroke="#1976D2" stroke-width="1"/>
  <text x="660" y="180" font-family="Arial" font-size="14" text-anchor="middle" fill="white" font-weight="bold">LCD I2C Display</text>
  <text x="600" y="260" font-family="Arial" font-size="12" fill="white">SDA</text>
  <text x="640" y="260" font-family="Arial" font-size="12" fill="white">SCL</text>
  <text x="680" y="260" font-family="Arial" font-size="12" fill="white">VCC</text>
  <text x="720" y="260" font-family="Arial" font-size="12" fill="white">GND</text>
  
  <!-- Servo Motor -->
  <rect x="580" y="300" width="120" height="80" fill="#FF9800" stroke="#F57C00" stroke-width="2" rx="5" ry="5"/>
  <text x="640" y="330" font-family="Arial" font-size="14" text-anchor="middle" fill="white" font-weight="bold">Servo Motor</text>
  <text x="600" y="360" font-family="Arial" font-size="12" fill="white">Signal</text>
  <text x="640" y="360" font-family="Arial" font-size="12" fill="white">VCC</text>
  <text x="680" y="360" font-family="Arial" font-size="12" fill="white">GND</text>
  
  <!-- Buzzer -->
  <circle cx="640" cy="430" r="30" fill="#9C27B0" stroke="#7B1FA2" stroke-width="2"/>
  <text x="640" y="435" font-family="Arial" font-size="14" text-anchor="middle" fill="white" font-weight="bold">Buzzer</text>
  <text x="610" y="470" font-family="Arial" font-size="12" fill="black">+</text>
  <text x="670" y="470" font-family="Arial" font-size="12" fill="black">-</text>
  
  <!-- Connection Lines -->
  <!-- RFID to Arduino -->
  <line x1="220" y1="210" x2="300" y2="410" stroke="#4CAF50" stroke-width="2"/> <!-- SDA to D10 -->
  <line x1="220" y1="230" x2="300" y2="230" stroke="#4CAF50" stroke-width="2"/> <!-- SCK to D13 (not shown) -->
  <line x1="220" y1="250" x2="300" y2="430" stroke="#4CAF50" stroke-width="2"/> <!-- MOSI to D11 -->
  <line x1="220" y1="270" x2="300" y2="270" stroke="#4CAF50" stroke-width="2"/> <!-- MISO to D12 (not shown) -->
  <line x1="220" y1="310" x2="460" y2="390" stroke="#4CAF50" stroke-width="2"/> <!-- GND to GND -->
  <line x1="220" y1="330" x2="300" y2="390" stroke="#4CAF50" stroke-width="2"/> <!-- RST to D9 -->
  <line x1="220" y1="350" x2="460" y2="370" stroke="#4CAF50" stroke-width="2"/> <!-- 3.3V to 3.3V -->
  
  <!-- LCD to Arduino -->
  <line x1="600" y1="260" x2="460" y2="290" stroke="#2196F3" stroke-width="2"/> <!-- SDA to A4/SDA -->
  <line x1="640" y1="260" x2="460" y2="310" stroke="#2196F3" stroke-width="2"/> <!-- SCL to A5/SCL -->
  <line x1="680" y1="260" x2="460" y2="350" stroke="#2196F3" stroke-width="2"/> <!-- VCC to 5V -->
  <line x1="720" y1="260" x2="460" y2="410" stroke="#2196F3" stroke-width="2"/> <!-- GND to GND -->
  
  <!-- Servo to Arduino -->
  <line x1="600" y1="360" x2="300" y2="270" stroke="#FF9800" stroke-width="2"/> <!-- Signal to D3 -->
  <line x1="640" y1="360" x2="460" y2="350" stroke="#FF9800" stroke-width="2"/> <!-- VCC to 5V -->
  <line x1="680" y1="360" x2="460" y2="390" stroke="#FF9800" stroke-width="2"/> <!-- GND to GND -->
  
  <!-- Buzzer to Arduino -->
  <line x1="610" y1="470" x2="300" y2="370" stroke="#9C27B0" stroke-width="2"/> <!-- + to D8 -->
  <line x1="670" y1="470" x2="460" y2="410" stroke="#9C27B0" stroke-width="2"/> <!-- - to GND -->
  
  <!-- Legend -->
  <rect x="100" y="500" width="600" height="80" fill="white" stroke="black" stroke-width="1" rx="5" ry="5"/>
  <text x="400" y="520" font-family="Arial" font-size="16" text-anchor="middle" font-weight="bold">Connection Legend</text>
  
  <rect x="120" y="540" width="20" height="10" fill="#4CAF50"/>
  <text x="150" y="550" font-family="Arial" font-size="12">RFID Connections</text>
  
  <rect x="250" y="540" width="20" height="10" fill="#2196F3"/>
  <text x="280" y="550" font-family="Arial" font-size="12">LCD Connections</text>
  
  <rect x="380" y="540" width="20" height="10" fill="#FF9800"/>
  <text x="410" y="550" font-family="Arial" font-size="12">Servo Connections</text>
  
  <rect x="510" y="540" width="20" height="10" fill="#9C27B0"/>
  <text x="540" y="550" font-family="Arial" font-size="12">Buzzer Connections</text>
</svg>